<?xml version="1.0" encoding="utf-8"?>
<!-- Generator: Adobe Illustrator 23.0.2, SVG Export Plug-In . SVG Version: 6.00 Build 0)  -->
<svg version="1.1" id="Layer_1" xmlns="http://www.w3.org/2000/svg" xmlns:xlink="http://www.w3.org/1999/xlink" x="0px" y="0px"
	 viewBox="0 0 59.3 40" style="enable-background:new 0 0 59.3 40;" xml:space="preserve">
<style type="text/css">
	.st0{fill:#231F20;}
	.st1{clip-path:url(#SVGID_2_);fill-rule:evenodd;clip-rule:evenodd;fill:#312A20;}
</style>
<g>
	<path class="st0" d="M1.1,30.4c0-0.8,0.5-1.5,1.4-1.5c0.5,0,0.8,0.2,1,0.5l-0.2,0.2c-0.2-0.3-0.5-0.4-0.8-0.4c-0.6,0-1,0.5-1,1.2
		c0,0.7,0.4,1.2,1,1.2c0.3,0,0.6-0.1,0.8-0.4l0.2,0.2c-0.2,0.3-0.5,0.5-1,0.5C1.7,31.9,1.1,31.2,1.1,30.4z"/>
	<path class="st0" d="M4.7,31.8V29H5v0.5C5.3,29.2,5.6,29,6,29v0.3c-0.1,0-0.1,0-0.1,0c-0.3,0-0.7,0.3-0.8,0.5v2
		C5,31.8,4.7,31.8,4.7,31.8z"/>
	<path class="st0" d="M7,30.4C7,29.6,7.5,29,8.3,29c0.8,0,1.3,0.7,1.3,1.5v0.1H7.3c0,0.6,0.4,1.1,1.1,1.1c0.4,0,0.7-0.1,0.9-0.4
		l0.2,0.2c-0.3,0.3-0.6,0.4-1.1,0.4C7.5,31.9,7,31.3,7,30.4z M8.3,29.2c-0.7,0-1,0.6-1,1.1h2C9.3,29.8,9,29.2,8.3,29.2z"/>
	<path class="st0" d="M12.7,31.8v-0.3c-0.2,0.3-0.6,0.4-0.9,0.4c-0.5,0-1-0.3-1-0.9c0-0.6,0.5-0.9,1-0.9c0.4,0,0.7,0.1,0.9,0.4v-0.6
		c0-0.4-0.3-0.6-0.7-0.6c-0.3,0-0.6,0.1-0.9,0.4l-0.2-0.2c0.3-0.3,0.6-0.5,1.1-0.5c0.6,0,1,0.3,1,0.9v2L12.7,31.8L12.7,31.8z
		 M12.7,31.3v-0.6c-0.2-0.3-0.5-0.4-0.8-0.4c-0.5,0-0.8,0.3-0.8,0.7c0,0.4,0.3,0.7,0.8,0.7C12.2,31.7,12.5,31.5,12.7,31.3z"/>
	<path class="st0" d="M14.6,31.3v-2h-0.5V29h0.5v-0.8h0.3V29h0.6v0.3h-0.6v1.9c0,0.2,0.1,0.4,0.3,0.4c0.1,0,0.2-0.1,0.3-0.1l0.1,0.2
		c-0.1,0.1-0.2,0.2-0.5,0.2C14.8,31.9,14.6,31.7,14.6,31.3z"/>
	<path class="st0" d="M16.6,28.4c0-0.1,0.1-0.2,0.2-0.2c0.1,0,0.2,0.1,0.2,0.2c0,0.1-0.1,0.2-0.2,0.2C16.7,28.6,16.6,28.5,16.6,28.4
		z M16.7,31.8V29H17v2.8H16.7z"/>
	<path class="st0" d="M19.2,31.8L18,29h0.3l1,2.4l1-2.4h0.3l-1.2,2.8H19.2z"/>
	<path class="st0" d="M21.7,30.4c0-0.8,0.6-1.5,1.3-1.5c0.8,0,1.3,0.7,1.3,1.5v0.1H22c0,0.6,0.4,1.1,1.1,1.1c0.4,0,0.7-0.1,0.9-0.4
		l0.2,0.2c-0.3,0.3-0.6,0.4-1.1,0.4C22.2,31.9,21.7,31.3,21.7,30.4z M23,29.2c-0.7,0-1,0.6-1,1.1h2C24,29.8,23.7,29.2,23,29.2z"/>
	<path class="st0" d="M3.1,38.7v-0.3c-0.2,0.3-0.6,0.4-0.9,0.4c-0.5,0-1-0.3-1-0.9c0-0.6,0.5-0.9,1-0.9c0.4,0,0.7,0.1,0.9,0.4v-0.6
		c0-0.4-0.3-0.6-0.7-0.6c-0.3,0-0.6,0.1-0.9,0.4l-0.2-0.2c0.3-0.3,0.6-0.5,1.1-0.5c0.6,0,1,0.3,1,0.9v2L3.1,38.7L3.1,38.7z
		 M3.1,38.2v-0.6c-0.2-0.3-0.5-0.4-0.8-0.4c-0.5,0-0.8,0.3-0.8,0.7c0,0.4,0.3,0.7,0.8,0.7C2.6,38.5,2.9,38.4,3.1,38.2z"/>
	<path class="st0" d="M4.9,39.4l0.2-0.2c0.2,0.3,0.5,0.4,0.9,0.4c0.5,0,0.9-0.3,0.9-0.9v-0.4c-0.2,0.3-0.6,0.5-1,0.5
		c-0.7,0-1.2-0.6-1.2-1.5c0-0.9,0.5-1.5,1.2-1.5c0.4,0,0.7,0.2,1,0.5v-0.4h0.3v2.8c0,0.9-0.6,1.2-1.3,1.2
		C5.5,39.8,5.2,39.8,4.9,39.4z M6.9,38v-1.4c-0.2-0.3-0.5-0.5-0.9-0.5c-0.6,0-1,0.5-1,1.2c0,0.7,0.4,1.2,1,1.2
		C6.4,38.5,6.8,38.3,6.9,38z"/>
	<path class="st0" d="M8.6,37.3c0-0.8,0.6-1.5,1.3-1.5c0.8,0,1.3,0.7,1.3,1.5v0.1H8.9c0,0.6,0.4,1.1,1.1,1.1c0.4,0,0.7-0.1,0.9-0.4
		l0.2,0.2c-0.3,0.3-0.6,0.4-1.1,0.4C9.1,38.8,8.6,38.2,8.6,37.3z M9.9,36.1c-0.7,0-1,0.6-1,1.1h2C10.9,36.7,10.6,36.1,9.9,36.1z"/>
	<path class="st0" d="M14.4,38.7v-1.9c0-0.5-0.3-0.7-0.7-0.7c-0.4,0-0.7,0.2-0.9,0.5v2.1h-0.3v-2.8h0.3v0.4c0.2-0.2,0.6-0.5,1-0.5
		c0.6,0,0.9,0.3,0.9,0.9v1.9L14.4,38.7L14.4,38.7z"/>
	<path class="st0" d="M16.1,37.3c0-0.8,0.5-1.5,1.4-1.5c0.5,0,0.8,0.2,1,0.5l-0.2,0.2c-0.2-0.3-0.5-0.4-0.8-0.4c-0.6,0-1,0.5-1,1.2
		c0,0.7,0.4,1.2,1,1.2c0.3,0,0.6-0.1,0.8-0.4l0.2,0.2c-0.2,0.3-0.5,0.5-1,0.5C16.6,38.8,16.1,38.1,16.1,37.3z"/>
	<path class="st0" d="M19.5,39.5c0.1,0,0.2,0,0.2,0c0.2,0,0.3-0.1,0.4-0.3l0.2-0.5l-1.2-2.8h0.3l1,2.4l1-2.4h0.3l-1.4,3.4
		c-0.1,0.4-0.4,0.5-0.7,0.5c-0.1,0-0.2,0-0.3,0L19.5,39.5z"/>
</g>
<path d="M1.1,15.9V0.4h7.7c3.5,0,5.4,2.3,5.4,5.1c0,2.8-1.9,5.1-5.4,5.1H5.1v5.2L1.1,15.9L1.1,15.9z M10.2,5.6
	c0-1.1-0.8-1.7-1.9-1.7H5.1v3.3h3.2C9.4,7.2,10.2,6.6,10.2,5.6z"/>
<path d="M17.2,15.9V0.4h4v15.5H17.2z"/>
<path d="M45.4,15.9v-12h-4.3V0.4h12.6v3.5h-4.3v12L45.4,15.9L45.4,15.9z"/>
<path d="M53.9,14c0-1.2,1-2.2,2.2-2.2c1.2,0,2.2,1,2.2,2.2s-1,2.2-2.2,2.2C54.9,16.2,53.9,15.2,53.9,14z"/>
<g>
	<g>
		<defs>
			<path id="SVGID_1_" d="M24.3,8.2c0-4.8,3.6-8,8.4-8c3.7,0,5.7,2.1,6.7,4.2L36,5.9c-0.5-1.2-1.8-2.2-3.3-2.2
				c-2.5,0-4.3,1.9-4.3,4.5s1.8,4.5,4.3,4.5c1.5,0,2.8-1,3.3-2.3l3.4,1.6c-1,2-3,4.2-6.7,4.2C27.9,16.2,24.3,12.9,24.3,8.2z"/>
		</defs>
		<clipPath id="SVGID_2_">
			<use xlink:href="#SVGID_1_"  style="overflow:visible;"/>
		</clipPath>
		<path class="st1" d="M32.3,0.9c0.1,0,0.2-0.3,0.4-0.1c0,0.2-0.2,0.3-0.3,0.4c-0.8,0.8-1.7,1.5-2.5,2.3c1-0.9,2.1-1.7,3.2-2.5
			c0.4-0.3,0.7-0.6,1.1-0.8c0.1,0,0.1,0.1,0.1,0.2c0,0,0.2,0,0.2,0.1c-0.1,0.2-0.3,0.3-0.4,0.4c-2.2,1.8-4.4,3.8-6.4,5.8
			c1.7-1.5,3.4-3,5.2-4.4c0.5-0.3,0.9-0.7,1.3-1c0.1-0.1,0.3-0.3,0.5-0.2c0.1,0.1-0.1,0.3-0.2,0.3c-0.3,0.2-0.6,0.5-0.9,0.7
			c-1.2,1-2.4,2-3.5,3.1c1.6-1.4,3.3-2.8,5-4.1c0.1-0.1,0.2-0.2,0.4-0.3c0.1-0.1,0.3-0.2,0.4-0.2c0,0.2-0.2,0.3-0.3,0.4
			c-0.9,0.7-1.7,1.5-2.6,2.2c-1,0.8-1.9,1.7-2.8,2.6c-1.9,1.8-3.7,3.5-5.4,5.4c1.6-1.6,3.3-3.3,5-4.8c1.3-1.1,2.6-2.3,3.9-3.5
			c0.3-0.3,0.7-0.5,1-0.8C34.9,2.1,35,1.9,35.2,2c0,0.2-0.2,0.3-0.3,0.4c-0.4,0.3-0.8,0.6-1.2,1c-1.5,1.3-3,2.7-4.4,4.1
			c2-1.8,4.3-3.5,6.4-5.2C35.8,2.1,36,1.9,36.2,2c0.1,0.2-0.1,0.3-0.2,0.3c-1.5,1.2-3,2.6-4.5,3.9C30,7.7,28.4,9.1,27,10.6
			c1.6-1.6,3.3-3.2,5.1-4.7c1.3-1.1,2.7-2.3,4.1-3.3c0.3-0.3,0.7-0.6,1-0.8c0.1-0.1,0.3-0.2,0.4-0.1c0,0.2-0.2,0.2-0.3,0.3
			c-0.8,0.6-1.6,1.3-2.3,1.9c-2.7,2.1-5.1,4.6-7.5,7.1c1.2-1.2,2.5-2.4,3.9-3.6c0.4-0.4,0.9-0.8,1.3-1.2c1.3-1.2,2.6-2.4,4-3.5
			c0.3-0.3,0.7-0.6,1-0.8c0.1-0.1,0.2-0.3,0.4-0.2c0.1,0.1-0.1,0.2-0.2,0.3C37.2,2.5,36.6,3,36,3.5c-0.7,0.6-1.5,1.2-2.2,1.9
			c-1.4,1.3-2.7,2.7-4,4c2.4-2.1,4.8-4.3,7.3-6.3c0.3-0.2,0.5-0.4,0.8-0.6c0.1-0.1,0.2-0.2,0.3-0.1c0.1,0.2-0.2,0.3-0.3,0.4
			c-0.8,0.6-1.7,1.3-2.5,2c-2.8,2.4-5.5,4.8-7.9,7.6c2.4-2.4,5.1-4.8,7.7-7.1c0.8-0.7,1.5-1.3,2.4-2c0.1-0.1,0.2-0.3,0.4-0.2
			c0.1,0.2-0.2,0.3-0.3,0.4C37,4,36.2,4.7,35.4,5.4c-0.5,0.4-0.9,0.8-1.4,1.2c-2.3,2-4.4,4.3-6.5,6.5c2.9-2.7,5.9-5.3,8.9-7.9
			c0.7-0.7,1.5-1.3,2.3-1.9C38.8,3.2,38.9,3.1,39,3c0.1-0.1,0.3-0.2,0.5-0.2c0.1,0.2-0.1,0.3-0.2,0.4c-0.8,0.7-1.7,1.4-2.6,2.1
			c-1,0.8-1.9,1.7-2.8,2.5c-1.9,1.7-3.7,3.4-5.4,5.2c2.2-2.1,4.5-4.3,7-6.2c0.7-0.6,1.5-1.6,2.3-2.1c0.1-0.1,0.2-0.2,0.4-0.1
			c0.1,0.2-0.5,0.7-0.6,0.8c-0.8,0.6-1.4,1.3-2.1,2.1c-0.4,0.4-0.9,0.8-1.3,1.2c-1.2,1.2-2.5,2.5-3.8,3.7c-0.8,0.8-1.7,1.7-2.4,2.6
			c0.5-0.4,1-0.9,1.5-1.4c1.9-1.9,3.9-3.7,5.9-5.5c1.2-1.1,2.5-2.2,3.9-3.3c0.1-0.1,0.3-0.2,0.4-0.3c0.1-0.1,0.3-0.2,0.5-0.2
			c0.1,0.2-0.2,0.3-0.3,0.4c-0.8,0.7-1.6,1.3-2.4,2c-2.7,2.4-5.2,4.9-7.7,7.5c0.8-0.8,1.7-1.6,2.6-2.4c0.9-0.8,1.7-1.6,2.5-2.4
			c1.3-1.2,2.6-2.3,4-3.5c0.3-0.3,0.7-0.6,1-0.8c0.1-0.1,0.2-0.2,0.4-0.1c0,0.2-0.1,0.3-0.2,0.4c-0.7,0.6-1.5,1.4-2.3,2
			c-1.3,1.1-2.6,2.3-4,3.4c-0.2,0.2-0.4,0.4-0.6,0.6c-1,1-2,2.1-2.9,3.2c2.3-2.3,4.9-4.6,7.5-6.8c0.7-0.5,1.3-1.1,1.9-1.6
			c0.1-0.1,0.2-0.2,0.3-0.3c0.1-0.1,0.2-0.2,0.4-0.1c0,0.2-0.1,0.2-0.2,0.3c-0.7,0.6-1.5,1.3-2.2,1.9c-1.6,1.5-3.1,3.1-4.7,4.6
			c-0.8,0.8-1.5,1.6-2.2,2.4c2.5-2.5,5.3-4.9,7.9-7.3c0.8-0.7,1.6-1.4,2.4-2.1c0.1-0.1,0.2-0.2,0.4-0.2c0.1,0.2-0.2,0.3-0.3,0.4
			c-0.8,0.7-1.6,1.4-2.4,2.2c-0.9,0.8-1.9,1.6-2.7,2.5c-1.7,1.7-3.7,3.3-5.1,5.3c1.5-1.5,3-3,4.5-4.5c0.8-0.7,1.5-1.5,2.3-2.2
			c0.7-0.6,1.3-1.3,2.1-1.9C39.9,7,40,6.8,40.2,6.9C40.2,7,40.1,7.2,40,7.2c-0.7,0.6-1.4,1.2-2.1,1.9c-0.8,0.7-1.6,1.5-2.3,2.2
			c-1.5,1.5-3.1,3-4.5,4.5c0.4-0.3,0.7-0.7,1.1-1c1.2-1,2.3-2.1,3.5-3.1c0.4-0.3,0.8-0.7,1.2-1c0.4-0.4,0.7-0.7,1.1-1.1
			c0.7-0.6,1.3-1.3,2-1.9c0.1-0.1,0.2-0.2,0.4-0.1c0.1,0.1-0.1,0.2-0.2,0.3c-1.2,1.2-2.5,2.4-3.8,3.6c-1.3,1.3-2.6,2.6-3.9,3.9
			c2.2-2.2,4.6-4.4,7-6.4c0.1-0.1,0.2-0.1,0.3-0.2c0.1-0.1,0.2-0.2,0.3-0.1c0,0.3-0.2,0.4-0.4,0.5c-0.2,0.1-0.3,0.3-0.5,0.5
			c-1,0.9-1.9,1.8-2.9,2.7c-1.2,1.2-2.6,2.4-3.7,3.7c1.4-1.4,2.8-2.8,4.3-4.2c0.4-0.3,0.8-0.6,1.1-1c0.9-0.9,1.7-1.8,2.7-2.6
			c0.1-0.1,0.2-0.2,0.3-0.2c0.1-0.1,0.2-0.2,0.3-0.1c0,0.2-0.1,0.3-0.2,0.4c-0.7,0.6-1.4,1.3-2.1,1.9c-0.4,0.4-0.8,0.7-1.2,1.1
			c-2,1.8-3.9,3.8-5.7,5.8c1.3-1.3,2.6-2.6,4-3.9c1-0.9,2-1.9,3.1-2.8c0.2-0.1,0.3-0.3,0.5-0.5c0.2-0.1,0.3-0.4,0.6-0.3
			c0,0.2-0.2,0.3-0.4,0.5c-0.4,0.4-0.9,0.8-1.3,1.2c-1.8,1.6-3.5,3.3-5,5.2c0.6-0.6,1.2-1.3,1.9-1.9c1.3-1.3,2.6-2.4,4-3.6
			c0.5-0.4,1-0.9,1.5-1.3c0.2-0.1,0.3-0.4,0.6-0.3c0,0.2-0.2,0.3-0.3,0.4c-0.4,0.3-0.8,0.6-1.2,1c-0.5,0.4-1,1-1.5,1.4
			c-1,1-1.9,2-2.8,3.1c1.7-1.6,3.5-3.3,5.3-4.9c0.1-0.1,0.2-0.3,0.4-0.2c0.1,0.2-0.2,0.3-0.3,0.4c-2,1.7-3.8,3.6-5.6,5.5
			c1.1-1,2.2-1.9,3.2-2.9c0.2-0.2,0.3-0.3,0.5-0.5c0.2-0.1,0.3-0.4,0.6-0.4c0.1,0.1-0.1,0.2-0.1,0.3c-0.2,0.2-0.5,0.5-0.8,0.7
			c0,0,0.1,0,0.1,0.1c-0.2,0.3-0.5,0.5-0.7,0.7c0.1-0.1,0.2-0.1,0.2,0c-0.1,0.3-0.4,0.4-0.5,0.6c0.1-0.1,0.2-0.2,0.4-0.3
			c0.1-0.1,0.3-0.3,0.4-0.2c0,0.2-0.2,0.3-0.3,0.4c-0.2,0.2-0.4,0.4-0.6,0.7c-0.1,0.1-0.2,0.2-0.3,0.4c0,0.1,0,0.3-0.2,0.4
			c-0.1-0.1,0-0.3,0-0.4c-0.2,0-0.3,0.4-0.6,0.2c-0.1,0.1-0.2,0.2-0.4,0.4c-0.1,0.1-0.3,0.4-0.4,0.4c-0.1,0-0.1,0-0.1-0.1
			c-0.2,0.1-0.3,0.4-0.6,0.3c0-0.2,0.1-0.3,0.2-0.4c0.1-0.1,0.2-0.2,0.3-0.3c-0.2,0.1-0.4,0.3-0.6,0.5c-0.2,0.2-0.4,0.4-0.7,0.4
			c0-0.2,0.1-0.3,0.3-0.4c0.3-0.4,0.7-0.8,1-1.1c-0.1,0.1-0.3,0.3-0.5,0.4c-0.1,0.1-0.3,0.4-0.5,0.4c-0.1-0.2,0.1-0.3,0.1-0.4
			c0.6-0.9,1.3-1.7,2-2.4c-0.7,0.6-1.4,1.3-2.1,2c-0.5,0.5-1,1-1.5,1.5c-0.2,0.1-0.3,0.4-0.6,0.4c-0.1-0.2,0.1-0.4,0.3-0.5
			c0.4-0.5,0.7-1,1.2-1.4c-0.8,0.7-1.6,1.6-2.4,2.4c-0.1,0.1-0.3,0.3-0.4,0.2c-0.1-0.2,0.1-0.4,0.2-0.5c0.1-0.2,0.3-0.3,0.4-0.4
			c-0.1,0-0.2,0-0.1-0.1c0.1-0.3,0.4-0.6,0.6-0.8c0.6-0.8,1.4-1.5,2.1-2.2c1-1,1.9-1.9,2.9-2.8c-1.6,1.4-3.2,2.8-4.6,4.3
			c-0.4,0.4-0.7,0.8-1.1,1.1c-0.1,0.1-0.2,0.3-0.4,0.3c-0.1-0.2,0.1-0.4,0.2-0.5c0.8-1,1.8-2,2.7-2.9c-1,0.8-2,1.7-2.9,2.6
			c-0.2,0.2-0.4,0.5-0.7,0.7c-0.1,0.1-0.2,0.2-0.3,0.1c-0.1-0.2,0.2-0.3,0.3-0.5c-0.2-0.1,0-0.4,0.1-0.6c0.3-0.4,0.6-0.9,0.9-1.2
			c-0.3,0.2-0.6,0.6-0.9,0.9c-0.1,0.1-0.3,0.2-0.4,0.1c-0.1-0.2,0.1-0.3,0.2-0.5c1.5-1.9,3.4-3.5,5-5.3c-1.1,1-2.2,1.9-3.3,2.9
			c-0.5,0.5-1,1-1.5,1.5c-0.4,0.4-0.8,0.8-1.2,1.1c-0.1,0.1-0.3,0.3-0.5,0.3c-0.1-0.2,0.2-0.4,0.3-0.6c0.4-0.5,0.9-1.1,1.3-1.6
			c-0.6,0.6-1.3,1.2-1.9,1.9c-0.5,0.5-0.9,1-1.4,1.5c-0.1,0.1-0.3,0.4-0.5,0.4c0-0.2,0.2-0.4,0.3-0.6c0.9-1.1,2-2.2,3-3.3
			c0.3-0.3,0.6-0.6,0.9-0.9c0.9-0.9,1.8-1.8,2.7-2.7c-1.5,1.4-3.1,2.9-4.6,4.4c-0.4,0.4-0.7,0.8-1.2,1.1c-0.1,0.1-0.3,0.3-0.5,0.2
			c-0.1-0.2,0.1-0.5,0.3-0.6c0.9-1.2,2.1-2.2,3.2-3.3c1.2-1.2,2.5-2.5,3.7-3.7c-2.5,2.1-5,4.3-7.2,6.7c-0.1,0.1-0.2,0.2-0.2,0.2
			c-0.1,0.1-0.2,0.2-0.3,0.1c-0.1-0.2,0.1-0.2,0.2-0.3c0.2-0.3,0.4-0.6,0.7-0.9c0.9-1.2,2.1-2.2,3.1-3.3c-1.5,1.3-3,2.7-4.5,4.1
			c-0.1,0.1-0.2,0.2-0.3,0.2c0-0.2,0.2-0.4,0.3-0.5c0.3-0.4,0.8-0.8,1.2-1.3c0.1-0.1-0.2,0.2-0.2,0.2c-0.4,0.4-0.8,0.8-1.1,1.2
			c-0.1,0.1-0.3,0.4-0.5,0.3c0-0.2,0.2-0.3,0.3-0.5c0.8-1.1,1.7-2.1,2.6-3.2c-0.7,0.6-1.3,1.3-2,1.9c-0.1,0.1-0.2,0.2-0.3,0.2
			c-0.1-0.1,0.1-0.3,0.1-0.4c0.6-0.7,1.3-1.4,2-2.1c0.8-0.8,1.5-1.6,2.3-2.3c-1.6,1.5-3.2,3-4.8,4.6c-0.1,0.1-0.2,0.2-0.3,0.3
			c-0.1,0.1-0.2,0.3-0.4,0.2c-0.1-0.1,0.1-0.2,0.1-0.3c1.1-1.4,2.4-2.7,3.6-4c-1,0.9-2,1.9-2.9,2.8c-0.2,0.2-0.3,0.3-0.5,0.5
			c-0.2,0.1-0.3,0.4-0.6,0.3c0-0.2,0.2-0.4,0.4-0.5c0.4-0.4,0.9-0.9,1.3-1.4c1.7-1.9,3.6-3.6,5.5-5.3C30.6,6.6,29,8,27.4,9.5
			c-0.8,0.7-1.5,1.5-2.2,2.3c-0.1,0.1-0.1,0.2-0.2,0.3c-0.1,0.1-0.2,0.2-0.3,0.1c-0.1-0.1,0.1-0.2,0.1-0.3c0.2-0.2,0.4-0.5,0.7-0.7
			c0.9-0.9,1.8-1.9,2.7-2.8c-1.2,1-2.2,2.2-3.3,3.3c-0.1,0.1-0.3,0.4-0.6,0.3c-0.1-0.3,0.2-0.5,0.3-0.6c0.5-0.6,1-1.1,1.5-1.7
			c2-2.2,4.3-4.1,6.4-6.2c-1.3,1.1-2.7,2.3-3.9,3.5C28,7.5,27.4,8,26.8,8.7c-0.3,0.3-0.6,0.6-0.9,0.9c-0.2,0.2-0.4,0.5-0.7,0.7
			c-0.1,0.1-0.2,0.2-0.3,0.1c-0.1-0.2,0.1-0.3,0.2-0.4c1.7-1.8,3.4-3.7,5.2-5.4c-1.6,1.4-3.2,2.8-4.7,4.3c-0.4,0.4-0.7,0.8-1.1,1.1
			c-0.1,0.1-0.3,0.3-0.4,0.2c-0.1-0.2,0.1-0.3,0.2-0.4c1.6-1.5,3-3.2,4.6-4.7c-1.2,1.1-2.4,2.3-3.6,3.4c-0.1,0.1-0.2,0.2-0.3,0.3
			C25,8.9,24.9,9,24.8,8.9c-0.1-0.1,0.1-0.3,0.1-0.3C25.4,8,26,7.4,26.6,6.9c0.6-0.6,1.3-1.3,2-1.9c1.4-1.2,2.8-2.4,4.1-3.6
			c-1.9,1.4-3.6,2.9-5.4,4.6c-0.7,0.7-1.3,1.3-2,2c-0.2,0.2-0.3,0.3-0.5,0.5c-0.2,0.2-0.3,0.4-0.5,0.5c-0.1,0-0.1,0.1-0.2,0.1
			c-0.1,0.1-0.2,0.2-0.3,0.3c-0.1,0.1-0.2,0.3-0.4,0.2c0-0.2,0.2-0.4,0.3-0.5c0.1-0.1,0.2-0.3,0.4-0.4c-0.4,0,0-0.4,0.2-0.7
			c0.9-1.1,1.9-2.3,2.9-3.3c1.2-1.2,2.4-2.4,3.5-3.5c-1.7,1.5-3.5,3-5,4.7c-0.4,0.4-0.8,0.8-1.2,1.3c-0.1,0.1-0.3,0.3-0.5,0.3
			c0-0.2,0.2-0.4,0.3-0.6c0.9-1.2,1.9-2.3,3-3.3c0.1-0.1-0.1,0.1-0.1,0.1c-0.4,0.4-0.8,0.8-1.2,1.3c-0.3,0.4-0.7,0.7-1.1,1
			c-0.1,0.1-0.2,0.3-0.4,0.2c-0.1-0.3,0.2-0.5,0.4-0.7c-0.1,0-0.2,0.2-0.3,0.1c0-0.3,0.2-0.4,0.3-0.6c0.4-0.5,0.8-1.1,1.3-1.5
			c0.6-0.7,1.4-1.2,2-1.8c-0.7,0.5-1.4,1.1-2.1,1.7c-0.1,0.1-0.2,0.2-0.3,0.1c-0.1-0.2,0.1-0.3,0.3-0.4c0.2-0.3,0.5-0.4,0.7-0.7
			C26.9,2.3,27,2,27.2,2.2c0.5-0.4,1-0.8,1.5-1.1c0.2-0.1,0.3-0.3,0.6-0.2c0,0.1-0.1,0.2-0.2,0.3c-1.2,1.1-2.6,2.1-3.7,3.5
			c0.4-0.4,0.8-0.8,1.3-1.3c0.4-0.4,0.9-0.8,1.3-1.2c0.7-0.6,1.3-1.2,2.1-1.7c0.1-0.1,0.2-0.2,0.4-0.3c0.1-0.1,0.2-0.2,0.4-0.2
			c0.1,0.2-0.1,0.3-0.2,0.3c-0.1,0.1-0.2,0.2-0.3,0.3c0.1-0.1,0.3-0.2,0.4-0.1c0,0.2-0.2,0.3-0.3,0.4c-1.9,1.7-3.7,3.5-5.4,5.4
			c0.5-0.5,1-1.1,1.6-1.6c1.5-1.4,3-2.9,4.7-4.1c0.1-0.1,0.3-0.3,0.5-0.2c0,0.2-0.2,0.3-0.4,0.5c-0.4,0.4-0.8,0.9-1.3,1.3
			c-0.6,0.5-1.2,1.1-1.7,1.7c-1.1,1.1-2.2,2.3-3.3,3.5c0.6-0.6,1.2-1.3,1.9-2c0.6-0.6,1.3-1.3,1.9-1.9c0.7-0.6,1.4-1.2,2-1.8
			c0.6-0.5,1.2-1.1,1.8-1.5c0.1-0.1,0.2-0.2,0.3-0.1c0,0.2-0.2,0.3-0.3,0.5C32.7,0.5,32.5,0.7,32.3,0.9z M30.3,2.5
			c0,0,0.2-0.2,0.1-0.1C30.4,2.4,30.3,2.5,30.3,2.5z M30.1,2.7c0.1,0,0.2-0.2,0.1-0.1C30.2,2.5,30.1,2.7,30.1,2.7z M29.6,3.1
			C29.7,3,30,2.8,30,2.7C29.9,2.9,29.6,3,29.6,3.1z M25.5,5.1c0.4-0.4,0.9-0.9,1.2-1.3C26.3,4.2,25.8,4.8,25.5,5.1z M36.7,15.5
			c0.5-0.5,1.1-1,1.5-1.5C37.7,14.5,37.1,15,36.7,15.5z M37,15.5c0.3-0.2,0.6-0.6,0.7-0.7C37.4,15.1,37.2,15.3,37,15.5z"/>
	</g>
</g>
</svg>
