<svg id="Ñëîé_1" data-name="Ñëîé 1" xmlns="http://www.w3.org/2000/svg" viewBox="0 0 4000 2000"><defs><style>.cls-1{fill:none;}</style></defs><title>404</title><rect class="cls-1" width="4000" height="2000"/><path d="M3447.64,301.73c0-.07,0-.13,0-.2-11.36-37.85-45.27-62.74-82.36-72.33a4.56,4.56,0,0,0-5.6,2.42c-154,189-290,391.59-429.3,591.47q-59.4,85.24-120.1,169.57c-.06.08-.09.17-.14.25a6.37,6.37,0,0,0-2.9,4.61c-8.31,18.43-16,37.16-23.36,56-11.68,30-23.6,61.15-28.61,93.12-.72,4.54,3.75,7.43,7.77,6.17,24.84-7.78,48.34-23.7,70.21-37.41,21.45-13.44,45-27.32,62.79-45.72a10.72,10.72,0,0,0,2-2.41c143.34-198.18,277.28-403,423.53-599.15q61-81.74,125.22-160.95A5.06,5.06,0,0,0,3447.64,301.73Zm-203.89,97.49q59.79-80.16,122.76-157.89a115.3,115.3,0,0,1,37.4,18.33q-138.4,169.72-265,348.55c-68.06,95.62-133.7,192.91-199.8,289.88-28.3,41.52-56.75,82.94-86.12,123.71q-15.48-12.85-31.61-25C2964.25,799.13,3097.88,594.81,3243.75,399.22ZM2826.3,1106.27c-12.28,7.7-25.05,16-38.29,23.18a43.06,43.06,0,0,0-14.9-10.85c6-21.52,14.2-42.58,22.27-63.15,6.39-16.33,13.09-32.57,20.21-48.6q17,12.84,33.34,26.49a6.55,6.55,0,0,0,3.1,2.6q16.65,14.1,32.5,29.17C2867.8,1081.45,2845.79,1094.06,2826.3,1106.27ZM3008.21,891.9q-57.57,82.65-116.39,164.42-14.68-14-30.09-27.13c56.92-79,110.73-160.17,165.61-240.56,73.7-108,148.82-215,227.27-319.52q77-102.63,158.06-202.09a88.22,88.22,0,0,1,23.22,35.43C3282.54,490.9,3147,692.73,3008.21,891.9Z" transform="translate(0.28)"/><path d="M3,1501.4c148.36,32.55,298.2-4.82,444.11-32.41,77-14.57,155.12-27,233.78-25.29,80.3,1.72,157.71,21.87,234.81,42.6,73.53,19.77,147.24,38.34,223.57,42.36a746.09,746.09,0,0,0,202.42-17.4,757.37,757.37,0,0,0,194.38-72.82c59.13-32,118-72.26,163.14-122.53,41.63-46.31,74.72-111.26,47.4-173.22-23.86-54.12-82.88-85.13-140.17-87.25-71.5-2.65-141.78,31.91-197.15,74.66-49.64,38.33-91.35,88.23-115.73,146.34-22.94,54.71-29,115.06-12.59,172.43,15.64,54.78,49.67,105.46,97.74,136.78,128.43,83.69,269.88-20.45,379.86-85.93,266.21-158.5,563.31-264.61,869.61-311.13q57.24-8.68,114.85-14.55c5.36-.55,5.42-9,0-8.47a2426.31,2426.31,0,0,0-832.71,241.66q-98,48.88-191.23,106.55c-60.92,37.52-124.2,78.35-195.85,91-65.7,11.57-129.86-8.23-176.2-56.33-41-42.54-65.37-101.35-67.11-160.34-3.89-131.34,98.58-246.33,212.23-298.51,64.1-29.43,142.42-39.49,202.8,3.94,25,18,44.47,43.75,50.88,74.19,7.63,36.24-4.14,72.74-23.21,103.48-36.09,58.15-95.44,102.17-152.76,137.81a748.32,748.32,0,0,1-382.17,112.11c-71.62,1-141.57-10.13-210.88-27.51-73.59-18.45-146.26-41.62-221.56-52.28-69.79-9.88-140.12-6.66-209.76,2.75-144.25,19.51-286.3,64.69-433,61.66A552.62,552.62,0,0,1,5.29,1493.24c-5.31-1.17-7.58,7-2.25,8.16Z" transform="translate(0.28)"/></svg>